<svg width="1440" height="570" viewBox="0 0 1440 570" fill="none" xmlns="http://www.w3.org/2000/svg">
<rect width="1440" height="13.8925" fill="#EEEEEE"/>
<rect width="1440" height="13.8925" transform="translate(0 27.7849)" fill="#EEEEEE"/>
<rect width="1440" height="13.8925" transform="translate(0 55.5698)" fill="#EEEEEE"/>
<rect width="1440" height="13.8925" transform="translate(0 83.3547)" fill="#EEEEEE"/>
<rect width="1440" height="13.8925" transform="translate(0 111.14)" fill="#EEEEEE"/>
<rect width="1440" height="13.8925" transform="translate(0 138.925)" fill="#EEEEEE"/>
<rect width="1440" height="13.8925" transform="translate(0 166.71)" fill="#EEEEEE"/>
<rect width="1440" height="13.8925" transform="translate(0 194.576)" fill="#EEEEEE"/>
<rect width="1440" height="13.8925" transform="translate(0 222.361)" fill="#EEEEEE"/>
<rect width="1440" height="13.8925" transform="translate(0 250.146)" fill="#EEEEEE"/>
<rect width="1440" height="13.8925" transform="translate(0 277.931)" fill="#EEEEEE"/>
<rect width="1440" height="13.8925" transform="translate(0 305.716)" fill="#EEEEEE"/>
<rect width="1440" height="13.8925" transform="translate(0 333.501)" fill="#EEEEEE"/>
<rect width="1440" height="13.8925" transform="translate(0 361.368)" fill="#EEEEEE"/>
<rect width="1440" height="13.8925" transform="translate(0 389.152)" fill="#EEEEEE"/>
<rect width="1440" height="13.8925" transform="translate(0 416.938)" fill="#EEEEEE"/>
<rect width="1440" height="13.8925" transform="translate(0 444.722)" fill="#EEEEEE"/>
<rect width="1440" height="13.8925" transform="translate(0 472.507)" fill="#EEEEEE"/>
<rect width="1440" height="13.8925" transform="translate(0 500.538)" fill="#EEEEEE"/>
<rect width="1440" height="13.8925" transform="translate(0 528.322)" fill="#EEEEEE"/>
<rect width="1440" height="13.8925" transform="translate(0 556.108)" fill="#EEEEEE"/>
</svg>
