<svg width="170" height="292" viewBox="0 0 170 292" fill="none" xmlns="http://www.w3.org/2000/svg">
<path d="M88 78C76 78 66.6667 81.4667 60 88.4C53.3333 95.3333 50 105.867 50 120C50 124 50.6667 128 52 132C52.5333 134.133 53.2 136.133 54 138L20 146C19.2 144.933 18.5333 143.467 18 141.6C16.6667 138.4 16 133.867 16 128C16 120.533 17.6 113.467 20.8 106.8C24 99.8667 28.6667 93.8667 34.8 88.8C40.9333 83.7333 48.4 79.7333 57.2 76.8C66.2667 73.6 76.5333 72 88 72C100 72 110.667 73.7333 120 77.2C129.6 80.4 137.6 84.9333 144 90.8C150.4 96.6667 155.333 103.6 158.8 111.6C162.267 119.6 164 128.4 164 138C164 152.667 160.8 164.133 154.4 172.4C148.267 180.667 141.467 187.067 134 191.6C125.2 196.667 115.2 200.133 104 202C117.867 203.867 130.133 208 140.8 214.4C145.333 217.067 149.867 220.4 154.4 224.4C158.933 228.4 162.933 233.2 166.4 238.8C169.867 244.133 172.667 250.4 174.8 257.6C176.933 264.8 178 272.933 178 282C178 293.467 175.733 304.267 171.2 314.4C166.933 324.267 160.8 332.933 152.8 340.4C144.8 347.6 135.067 353.333 123.6 357.6C112.4 361.867 99.8667 364 86 364C74.5333 364 64 362.133 54.4 358.4C44.8 354.667 36.5333 349.6 29.6 343.2C22.9333 336.8 17.6 329.467 13.6 321.2C9.86667 312.667 8 303.6 8 294C8 272.933 11.8667 257.733 19.6 248.4C27.6 238.8 37.0667 234 48 234C49.3333 234 50.6667 234.133 52 234.4C53.6 234.667 55.0667 234.933 56.4 235.2C57.7333 235.467 58.9333 235.733 60 236L52 268C28 268 16 279.333 16 302C16 308.4 17.6 314.933 20.8 321.6C24.2667 328 28.9333 333.733 34.8 338.8C40.6667 343.867 47.6 348 55.6 351.2C63.6 354.4 72.4 356 82 356C100.133 356 114.267 350.267 124.4 338.8C134.8 327.067 140 308.133 140 282C140 255.067 134.933 235.733 124.8 224C114.667 212 101.067 206 84 206H68V198H84C98.1333 198 109.333 193.333 117.6 184C125.867 174.4 130 159.067 130 138C130 128.133 128.8 119.467 126.4 112C124.267 104.267 121.2 98 117.2 93.2C113.467 88.1333 109.067 84.4 104 82C98.9333 79.3333 93.6 78 88 78Z" transform="translate(-8 -72)" fill="#EEEEEE"/>
</svg>
