<svg width="176" height="288" viewBox="0 0 176 288" fill="none" xmlns="http://www.w3.org/2000/svg">
<path d="M80 78C72.5333 78 65.3333 79.6 58.4 82.8C51.4667 86 45.2 90.4 39.6 96C34.2667 101.333 30 107.467 26.8 114.4C23.6 121.333 22 128.533 22 136C22 142.933 24.6667 148.667 30 153.2C35.6 157.733 44.9333 160 58 160L66 192C64.9333 192.533 63.7333 192.933 62.4 193.2C61.0667 193.467 59.6 193.733 58 194C56.6667 194 55.3333 194 54 194C42.8 194 33.3333 189.6 25.6 180.8C17.8667 171.733 14 158.133 14 140C14 130.4 15.8667 121.467 19.6 113.2C23.3333 104.667 28.4 97.2 34.8 90.8C41.2 84.4 48.5333 79.3333 56.8 75.6C65.3333 71.8667 74.4 70 84 70C96.5333 70 108 72.1333 118.4 76.4C129.067 80.6667 138.133 86.5333 145.6 94C153.333 101.2 159.333 109.867 163.6 120C167.867 129.867 170 140.533 170 152C170 162.933 167.733 174.267 163.2 186C158.667 197.467 152.533 208.933 144.8 220.4C137.333 231.867 128.8 243.067 119.2 254C109.6 264.933 99.7333 275.2 89.6 284.8C79.4667 294.4 69.6 303.333 60 311.6C50.4 319.6 41.7333 326.4 34 332H160L168 294H174V358H-2C16.4 338 33.7333 319.333 50 302C66.2667 284.667 80.4 267.867 92.4 251.6C104.667 235.067 114.267 218.8 121.2 202.8C128.4 186.533 132 169.6 132 152C132 138.933 130.667 127.733 128 118.4C125.333 109.067 121.733 101.467 117.2 95.6C112.667 89.4667 107.2 85.0667 100.8 82.4C94.4 79.4667 87.4667 78 80 78Z" transform="translate(2 -70)" fill="#EEEEEE"/>
</svg>
