<svg width="74" height="133" viewBox="0 0 74 133" fill="none" xmlns="http://www.w3.org/2000/svg">
<path d="M25.2683 122.979C25.2683 120.186 26.2309 117.817 28.1561 115.874C30.0813 113.931 32.4276 112.959 35.1951 112.959C37.9626 112.959 40.3089 113.931 42.2341 115.874C44.1594 117.817 45.122 120.186 45.122 122.979C45.122 125.773 44.1594 128.142 42.2341 130.085C40.3089 132.028 37.9626 133 35.1951 133C32.4276 133 30.0813 132.028 28.1561 130.085C26.2309 128.142 25.2683 125.773 25.2683 122.979ZM74 40.0822C74 45.305 73.0976 50.1635 71.2927 54.6575C69.6081 59.1516 67.2618 63.1598 64.2537 66.6822C61.3659 70.0831 57.9967 72.9982 54.1463 75.4274C50.4163 77.7352 46.5057 79.3142 42.4146 80.1644L37.9024 102.938H32.4878C32.2472 99.7804 31.8862 96.6224 31.4049 93.4644C31.0439 90.7922 30.5024 87.9379 29.7805 84.9014C29.0585 81.8649 28.1561 79.0712 27.0732 76.5206C37.0602 76.5206 44.5203 73.7877 49.4537 68.3219C54.387 62.7347 56.8537 53.3215 56.8537 40.0822C56.8537 33.5233 56.252 27.9361 55.0488 23.3205C53.8455 18.705 52.161 14.9397 49.9951 12.0247C47.8293 9.1096 45.1821 6.98402 42.0537 5.64795C38.9252 4.31188 35.4358 3.64384 31.5854 3.64384C27.735 3.64384 24.1252 4.37261 20.7561 5.83014C17.387 7.28768 14.439 9.29179 11.9122 11.8425C9.38537 14.2717 7.33984 17.0653 5.77561 20.2233C4.33171 23.3813 3.60976 26.6607 3.60976 30.0616C3.60976 33.2196 4.81301 35.8311 7.21951 37.8959C9.74634 39.9607 13.9577 40.9932 19.8537 40.9932L23.4634 55.5685C22.9821 55.8114 22.4407 55.9936 21.839 56.1151C21.2374 56.2365 20.5756 56.358 19.8537 56.4795C19.252 56.4795 18.6504 56.4795 18.0488 56.4795C12.9951 56.4795 8.72358 54.4753 5.23415 50.4671C1.74472 46.3375 0 40.1429 0 31.8836C0 27.511 0.842277 23.442 2.52683 19.6767C4.21138 15.79 6.55772 12.389 9.56585 9.47398C12.574 6.55891 16.1236 4.25115 20.2146 2.55069C24.3057 0.850231 28.6976 0 33.3902 0C39.5268 0 45.0618 0.971692 49.9951 2.91508C55.0488 4.85845 59.3203 7.59133 62.8098 11.1137C66.4195 14.6361 69.187 18.8872 71.1122 23.8671C73.0374 28.7256 74 34.1306 74 40.0822Z" fill="#C4C4C4"/>
</svg>
