<svg width="43" height="79" viewBox="0 0 43 79" fill="none" xmlns="http://www.w3.org/2000/svg">
<path d="M14.6829 73.0479C14.6829 71.3886 15.2423 69.9817 16.361 68.8274C17.4797 67.6731 18.8431 67.0959 20.4512 67.0959C22.0593 67.0959 23.4228 67.6731 24.5415 68.8274C25.6602 69.9817 26.2195 71.3886 26.2195 73.0479C26.2195 74.7073 25.6602 76.1142 24.5415 77.2685C23.4228 78.4228 22.0593 79 20.4512 79C18.8431 79 17.4797 78.4228 16.361 77.2685C15.2423 76.1142 14.6829 74.7073 14.6829 73.0479ZM43 23.8082C43 26.9105 42.4756 29.7963 41.4268 32.4658C40.448 35.1352 39.0846 37.516 37.3366 39.6082C35.6585 41.6283 33.7008 43.3598 31.4634 44.8027C29.2959 46.1735 27.0236 47.1114 24.6463 47.6164L22.0244 61.1438H18.878C18.7382 59.268 18.5285 57.3922 18.2488 55.5164C18.039 53.9292 17.7244 52.2338 17.3049 50.4301C16.8854 48.6265 16.361 46.9671 15.7317 45.4521C21.535 45.4521 25.8699 43.8288 28.7366 40.5822C31.6033 37.2635 33.0366 31.6721 33.0366 23.8082C33.0366 19.9123 32.687 16.5936 31.9878 13.8521C31.2886 11.1105 30.3098 8.87398 29.0512 7.14247C27.7927 5.41096 26.2545 4.14841 24.4366 3.3548C22.6187 2.56119 20.5911 2.16439 18.3537 2.16439C16.1163 2.16439 14.0187 2.59726 12.061 3.46301C10.1033 4.32877 8.39024 5.51918 6.92195 7.03425C5.45366 8.47717 4.26504 10.1365 3.3561 12.0123C2.51707 13.8881 2.09756 15.8361 2.09756 17.8562C2.09756 19.732 2.79675 21.2831 4.19512 22.5096C5.66341 23.7361 8.11057 24.3493 11.5366 24.3493L13.6341 33.0069C13.3545 33.1511 13.0398 33.2594 12.6902 33.3315C12.3407 33.4037 11.9561 33.4758 11.5366 33.5479C11.187 33.5479 10.8374 33.5479 10.4878 33.5479C7.55122 33.5479 5.06911 32.3575 3.04146 29.9767C1.01382 27.5237 0 23.8443 0 18.9384C0 16.3411 0.489431 13.9242 1.46829 11.6877C2.44715 9.379 3.81057 7.35891 5.55854 5.6274C7.3065 3.8959 9.36911 2.52512 11.7463 1.51507C14.1236 0.505024 16.6756 0 19.4024 0C22.9683 0 26.1846 0.57717 29.0512 1.73151C31.9878 2.88585 34.4699 4.50913 36.4976 6.60137C38.5951 8.69361 40.2033 11.2187 41.322 14.1767C42.4407 17.0626 43 20.2731 43 23.8082Z" fill="#C4C4C4"/>
</svg>
